<svg xmlns="http://www.w3.org/2000/svg" xmlns:xlink="http://www.w3.org/1999/xlink" viewBox="-40 0 434 354" height="28" width="27" xml:space="preserve">
<path d="M321.594,211.279c0-49.238-40.059-89.297-89.297-89.297c-49.238,0-89.297,40.059-89.297,89.297
	c0,20.318,6.66,39.455,19.259,55.342c15.657,19.741,60.947,66.367,62.868,68.342l7.169,7.374l7.17-7.374
	c1.921-1.976,47.226-48.611,62.886-68.359C314.94,250.729,321.594,231.598,321.594,211.279z M286.681,254.177
	c-11.422,14.404-40.747,45.226-54.384,59.416c-13.635-14.188-42.949-45.001-54.368-59.399
	C168.163,241.879,163,227.039,163,211.279c0-38.21,31.086-69.297,69.297-69.297s69.297,31.087,69.297,69.297
	C301.594,227.04,296.437,241.874,286.681,254.177z"/>
<path d="M232.297,155.72c-30.115,0-54.615,24.5-54.615,54.615c0,30.115,24.5,54.616,54.615,54.616s54.616-24.501,54.616-54.616
	S262.412,155.72,232.297,155.72z M232.297,244.951c-19.087,0-34.615-15.528-34.615-34.616c0-19.087,15.528-34.615,34.615-34.615
	c19.087,0,34.616,15.528,34.616,34.615C266.913,229.423,251.384,244.951,232.297,244.951z"/>
<polygon points="229.513,57.639 125.023,11.663 0,36.894 0,331.107 122.801,306.325 180.175,331.158 188.12,312.805 
	124.991,285.479 20,306.668 20,53.261 122.769,32.521 227.229,78.484 334,57.261 334,310.704 277.132,322.18 281.088,341.785 
	354,327.071 354,32.894"/>
</svg>
